<?xml version="1.0" standalone="no"?>
<!DOCTYPE svg PUBLIC "-//W3C//DTD SVG 20010904//EN"
 "http://www.w3.org/TR/2001/REC-SVG-20010904/DTD/svg10.dtd">
<svg version="1.0" xmlns="http://www.w3.org/2000/svg"
 width="20.000000pt" height="23.000000pt" viewBox="0 0 40.000000 43.000000"
 preserveAspectRatio="xMidYMid meet">

<g transform="translate(0.000000,43.000000) scale(0.100000,-0.100000)"
   fill="#FFFFFF" stroke="none">
<path d="M178 368 c-14 -14 -15 -18 -4 -18 8 0 16 -6 18 -12 4 -10 9 -8 21 3
15 15 15 18 -1 31 -15 13 -19 13 -34 -4z"/>
<path d="M77 312 c-10 -10 -17 -25 -17 -33 0 -8 -9 -20 -20 -27 -31 -19 -25
-61 15 -111 36 -45 38 -51 35 -88 -1 -23 1 -23 108 -23 l110 0 -1 35 c-1 24 7
43 25 62 50 54 59 91 31 121 -10 10 -25 32 -33 48 -21 39 -72 45 -106 13 l-24
-22 -23 21 c-29 27 -78 29 -100 4z m77 -1 c3 -5 -3 -11 -14 -14 -11 -3 -20
-12 -20 -21 0 -17 -9 -20 -34 -10 -19 7 -21 25 -4 42 14 14 64 16 72 3z m160
-7 c20 -20 20 -30 0 -38 -25 -10 -31 -7 -37 14 -3 12 -14 20 -27 20 -11 0 -18
5 -15 10 10 16 62 12 79 -6z m-129 -24 c3 -5 -2 -21 -11 -35 -13 -20 -19 -23
-30 -14 -15 12 -19 41 -7 52 10 10 41 8 48 -3z m83 -14 c3 -16 -12 -35 -28
-36 -11 0 -30 41 -24 51 10 16 48 6 52 -15z m-44 -38 c9 -18 22 -40 28 -49 9
-13 8 -23 -7 -45 l-18 -28 -11 23 c-7 16 -6 28 2 42 10 16 10 23 -3 36 -15 15
-18 15 -33 0 -13 -13 -13 -19 -4 -29 14 -14 15 -37 3 -57 -8 -12 -13 -11 -30
10 -25 30 -25 31 -3 55 9 10 23 31 29 47 16 35 27 34 47 -5z m-168 -2 c-4 -18
3 -34 29 -66 19 -23 35 -51 35 -63 0 -18 -5 -16 -32 17 -54 64 -72 109 -51
129 14 15 25 6 19 -17z m314 -15 c0 -10 -18 -41 -40 -70 -50 -68 -50 -68 -50
-43 0 12 14 37 30 55 20 23 30 45 30 67 0 28 2 31 15 20 8 -7 15 -20 15 -29z
m-231 15 c10 -11 10 -20 1 -36 l-12 -22 -24 23 c-13 12 -24 18 -24 12 0 -5 9
-18 20 -28 11 -10 20 -23 20 -29 0 -6 -14 4 -31 23 -22 24 -28 36 -19 41 7 4
9 13 6 19 -11 17 49 14 63 -3z m184 -8 c3 -12 2 -29 -3 -38 -12 -23 -40 -45
-40 -32 0 6 4 14 10 17 5 3 15 16 21 28 11 22 11 21 -14 -1 l-25 -24 -12 22
c-9 16 -9 25 1 36 18 22 56 18 62 -8z m-113 -33 c0 -8 -4 -15 -10 -15 -5 0
-10 7 -10 15 0 8 5 15 10 15 6 0 10 -7 10 -15z m-50 -93 c0 -26 -25 -5 -28 24
-2 28 -2 28 13 10 8 -11 15 -26 15 -34z m54 22 c10 -26 7 -34 -14 -34 -21 0
-24 8 -14 34 8 20 20 20 28 0z m56 -3 c0 -20 -17 -37 -27 -28 -7 8 7 47 18 47
5 0 9 -9 9 -19z m25 -61 c4 -6 -30 -10 -94 -10 -61 0 -101 4 -101 10 0 13 187
13 195 0z"/>
</g>
</svg>
